<?xml version="1.0" encoding="UTF-8"?>
<!DOCTYPE svg PUBLIC "-//W3C//DTD SVG 1.1//EN" "http://www.w3.org/Graphics/SVG/1.1/DTD/svg11.dtd">
<!-- Creator: CorelDRAW X7 -->
<svg xmlns="http://www.w3.org/2000/svg" xml:space="preserve" width="451.556mm" height="165.805mm" version="1.1" shape-rendering="geometricPrecision" text-rendering="geometricPrecision" image-rendering="optimizeQuality" fill-rule="evenodd" clip-rule="evenodd"
viewBox="0 0 45156 16581"
 xmlns:xlink="http://www.w3.org/1999/xlink">
 <g id="Layer_x0020_1">
  <metadata id="CorelCorpID_0Corel-Layer"/>
  <polygon fill="black" points="0,16581 45156,16581 45156,0 0,0 "/>
  <path fill="#F3F3F3" d="M8549 10654l-1371 -3756c-61,-159 -117,-303 -172,-462 -70,-200 -88,-286 -297,-342 -163,-43 -413,-29 -543,36 -150,76 -172,241 -242,429l-1376 3739c-164,441 -173,347 485,1144 383,464 591,698 1177,756 380,38 832,6 1134,-162 265,-148 1025,-1090 1205,-1382z"/>
  <polygon fill="#F3F3F3" points="40545,9671 41276,9671 41279,7390 42689,9669 43418,9668 43424,5939 42691,5942 42686,8219 41267,5940 40555,5943 "/>
  <path fill="#F3F3F3" d="M22730 9659l736 12 1 -2985 1224 0c197,0 330,42 345,300 40,729 -42,830 -368,830l-692 1 -226 732 627 0 664 1115 842 3c-110,-276 -598,-971 -670,-1200 309,-267 553,-358 565,-951 11,-528 19,-951 -277,-1267 -206,-220 -458,-302 -771,-302l-1991 -1 -9 3713z"/>
  <path fill="#F3F3F3" d="M18601 9669l730 1c2,-420 -48,-2594 18,-2810 44,-145 157,-177 305,-177l928 -1c403,0 317,203 323,1130l-1070 -1 -232 734 1294 5 7 1120 740 0 -2 -2615c-3,-1147 -875,-1113 -1534,-1113 -463,0 -736,-56 -1097,192 -246,168 -413,439 -413,885l3 2650z"/>
  <path fill="#F3F3F3" d="M7605 6651c-41,250 479,1506 599,1832 112,302 219,605 330,902 78,208 258,770 356,919 71,-36 78,-39 144,-104 553,-538 589,-66 -123,-1967 -90,-240 -310,-611 -66,-771 199,-80 479,372 689,643 197,254 469,548 612,797 71,-44 59,-15 133,-176 237,-511 380,-1065 492,-1625 119,-591 283,-1583 239,-2200 -106,98 -173,256 -257,385 -1323,2033 -2256,1130 -3148,1365z"/>
  <path fill="#F3F3F3" d="M2787 8893l668 -817c205,-252 560,-854 756,-535 141,229 -646,1801 -720,2275 219,142 364,354 609,499 146,-630 1309,-3280 1263,-3650 -643,-272 -1730,565 -2879,-999 -111,-151 -467,-636 -521,-776 -110,782 423,3556 824,4003z"/>
  <polygon fill="#F3F3F3" points="32385,6680 34313,6682 32385,8933 32386,9667 35316,9668 35319,8935 33387,8933 35301,6708 35302,5941 32615,5942 "/>
  <path fill="#F3F3F3" d="M14493 9669l735 -3 -1 -2984c310,0 620,1 930,0 315,0 619,-37 640,301 53,708 -42,868 -379,868l-669 1 -230 695c617,13 1264,92 1680,-238 443,-350 778,-2364 -758,-2368l-1930 0 -18 3728z"/>
  <polygon fill="#F3F3F3" points="26733,6681 28143,6682 27807,7127 27806,9662 28539,9669 28540,6684 29598,6680 29598,5951 26732,5941 "/>
  <polygon fill="#F3F3F3" points="30564,9655 31298,9672 31300,5939 30573,5943 "/>
  <path fill="#F3F3F3" d="M5529 5221c-118,-148 -1718,-1095 -2097,-1351 -127,-87 -231,-145 -344,-219 -137,-90 -234,-168 -372,-229 -97,156 -189,876 -76,1063 243,401 1141,852 1733,877 302,12 915,-8 1156,-141z"/>
  <path fill="#F3F3F3" d="M7435 5237c840,211 1430,195 2143,-175 292,-151 566,-329 724,-546 186,-255 19,-732 -21,-1077 -137,-9 -1794,1100 -2139,1316l-707 482z"/>
  <path fill="#FEFEFE" d="M36415 9669l730 1c1,-420 -49,-2594 17,-2810 44,-145 158,-177 306,-177l927 -1c404,0 317,203 323,1130l-1070 -1 -231 734 1294 5 6 1120 741 0 -2 -2615c-4,-1147 -876,-1113 -1534,-1113 -464,0 -737,-56 -1098,192 -246,168 -412,439 -413,885l4 2650z"/>
  <path fill="#292728" d="M6165 11639c-413,-1323 -275,-1955 13,-3311 46,-217 132,-605 395,-510 193,70 248,471 295,694 132,628 230,1168 230,1824 0,587 -152,824 -263,1307 216,-89 463,-376 611,-564 378,-480 277,-566 3,-1455 -133,-433 -578,-2161 -925,-2177 -255,-13 -480,709 -570,975 -135,397 -260,779 -383,1173 -97,313 -377,947 -199,1261 99,175 619,731 793,783z"/>
 </g>
</svg>
